<svg width="128" height="128" viewBox="0 0 128 128" xmlns="http://www.w3.org/2000/svg">
  <defs>
    <linearGradient id="grad1" x1="0%" y1="0%" x2="100%" y2="100%">
      <stop offset="0%" style="stop-color:#667eea;stop-opacity:1" />
      <stop offset="100%" style="stop-color:#764ba2;stop-opacity:1" />
    </linearGradient>
  </defs>
  
  <!-- Background circle -->
  <circle cx="64" cy="64" r="60" fill="url(#grad1)" stroke="#fff" stroke-width="4"/>
  
  <!-- Document icon -->
  <rect x="32" y="24" width="48" height="64" rx="4" fill="#fff" opacity="0.9"/>
  
  <!-- Lines representing text -->
  <rect x="40" y="36" width="32" height="3" rx="1.5" fill="#667eea"/>
  <rect x="40" y="44" width="28" height="3" rx="1.5" fill="#667eea"/>
  <rect x="40" y="52" width="30" height="3" rx="1.5" fill="#667eea"/>
  <rect x="40" y="60" width="26" height="3" rx="1.5" fill="#667eea"/>
  <rect x="40" y="68" width="32" height="3" rx="1.5" fill="#667eea"/>
  <rect x="40" y="76" width="24" height="3" rx="1.5" fill="#667eea"/>
  
  <!-- Summary arrow -->
  <path d="M 88 48 L 96 56 L 88 64" stroke="#fff" stroke-width="3" fill="none" stroke-linecap="round" stroke-linejoin="round"/>
  <path d="M 96 56 L 88 56" stroke="#fff" stroke-width="3" fill="none" stroke-linecap="round" stroke-linejoin="round"/>
  
  <!-- AI/Sparkle elements -->
  <circle cx="88" cy="32" r="3" fill="#fff" opacity="0.8"/>
  <circle cx="96" cy="40" r="2" fill="#fff" opacity="0.6"/>
  <circle cx="84" cy="40" r="2" fill="#fff" opacity="0.6"/>
</svg> 